<?xml version="1.0" encoding="UTF-8"?>
<svg id="Layer_2" data-name="Layer 2" xmlns="http://www.w3.org/2000/svg" viewBox="0 0 389.41 413">
  <defs>
    <style>
      .cls-1 {
        fill: #010101;
      }
    </style>
  </defs>
  <g id="_Слой_1" data-name="Слой 1">
    <g id="Logo_1" data-name="Logo 1">
      <path class="cls-1" d="M185.9,396.9h-.5c-1.9-.1-3.6,1.3-3.7,3.3s1.3,3.6,3.3,3.7h.7c1.8,0,3.4-1.4,3.5-3.3,.1-1.9-1.3-3.6-3.3-3.7Z"/>
      <path class="cls-1" d="M128.8,380.4l-.4-.2c-1.7-.9-3.8-.3-4.8,1.4-.9,1.7-.3,3.8,1.4,4.8l.5,.3c.5,.3,1.1,.4,1.7,.4,1.2,0,2.4-.7,3.1-1.8,.8-1.9,.2-4-1.5-4.9Z"/>
      <path class="cls-1" d="M205.9,396.7h-.5c-1.9,.2-3.4,1.8-3.2,3.8,.1,1.8,1.7,3.2,3.5,3.2h.8c1.9-.2,3.4-1.9,3.2-3.8-.2-2-1.9-3.4-3.8-3.2Z"/>
      <path class="cls-1" d="M225.6,393.5l-.5,.1c-1.9,.4-3.1,2.3-2.6,4.2,.4,1.6,1.8,2.7,3.4,2.7,.3,0,.5,0,.8-.1l.5-.1c1.9-.4,3-2.3,2.6-4.2-.4-1.8-2.3-3-4.2-2.6Z"/>
      <path class="cls-1" d="M112,369.5l-.4-.3c-1.5-1.2-3.7-.9-4.9,.7-1.2,1.5-.9,3.7,.7,4.9l.4,.3c.6,.5,1.4,.7,2.1,.7,1.1,0,2.1-.5,2.8-1.4,1.2-1.5,.9-3.7-.7-4.9Z"/>
      <path class="cls-1" d="M166.2,394.2l-.5-.1c-1.9-.4-3.8,.8-4.2,2.7-.4,1.9,.8,3.8,2.7,4.2l.5,.1c.2,.1,.5,.1,.7,.1,1.6,0,3.1-1.1,3.4-2.8,.5-1.9-.7-3.8-2.6-4.2Z"/>
      <path class="cls-1" d="M83.7,340.8c-1.2-1.6-3.3-1.9-4.9-.7-1.6,1.2-1.9,3.3-.7,4.9l.3,.4c.7,.9,1.7,1.4,2.8,1.4,.7,0,1.5-.2,2.1-.7,1.6-1.2,1.9-3.3,.7-4.9l-.3-.4Z"/>
      <path class="cls-1" d="M73,323.9c-.9-1.7-3-2.3-4.7-1.4s-2.3,3-1.4,4.7l.2,.4c.6,1.2,1.8,1.8,3.1,1.8,.6,0,1.1-.1,1.7-.4,1.7-.9,2.3-3,1.4-4.7l-.3-.4Z"/>
      <path class="cls-1" d="M147,388.7l-.5-.2c-1.8-.7-3.8,.2-4.5,2s.2,3.8,2,4.5l.5,.2c.4,.1,.8,.2,1.2,.2,1.4,0,2.8-.9,3.3-2.3,.7-1.7-.2-3.8-2-4.4Z"/>
      <path class="cls-1" d="M244.7,387.6l-.4,.2c-1.8,.7-2.7,2.7-2,4.5,.5,1.4,1.9,2.2,3.3,2.2,.4,0,.9-.1,1.3-.2l.5-.2c1.8-.7,2.7-2.8,2-4.5-.9-1.9-2.9-2.8-4.7-2Z"/>
      <path class="cls-1" d="M96.7,356c-1.4-1.4-3.6-1.4-4.9,0-1.4,1.4-1.4,3.6,0,4.9l.4,.4c.7,.7,1.6,1,2.5,1s1.8-.3,2.5-1c1.4-1.4,1.4-3.6,0-4.9l-.5-.4Z"/>
      <path class="cls-1" d="M293.9,354.1l-.3,.4c-1.3,1.4-1.3,3.6,.1,4.9,.7,.6,1.5,1,2.4,1s1.8-.4,2.5-1.1l.4-.4c1.3-1.4,1.3-3.6-.1-4.9-1.5-1.3-3.7-1.3-5,.1Z"/>
      <path class="cls-1" d="M311.5,337.9c-1.6-1.1-3.8-.7-4.9,.8l-.3,.4c-1.1,1.6-.7,3.8,.8,4.9,.6,.4,1.3,.6,2,.6,1.1,0,2.2-.5,2.9-1.5l.3-.4c1.1-1.5,.7-3.7-.8-4.8Z"/>
      <path class="cls-1" d="M262.6,378.9l-.4,.2c-1.7,1-2.3,3.1-1.3,4.8,.6,1.1,1.8,1.8,3,1.8,.6,0,1.2-.1,1.7-.5l.5-.3c1.7-1,2.2-3.1,1.3-4.8-1-1.6-3.1-2.2-4.8-1.2Z"/>
      <path class="cls-1" d="M321.7,320.1c-1.7-.9-3.8-.2-4.7,1.5l-.2,.4c-.9,1.7-.2,3.8,1.5,4.7,.5,.3,1.1,.4,1.6,.4,1.3,0,2.5-.7,3.1-1.9l.2-.5c.9-1.6,.2-3.7-1.5-4.6Z"/>
      <path class="cls-1" d="M279.1,367.6l-.4,.3c-1.5,1.2-1.8,3.4-.6,4.9,.7,.9,1.7,1.3,2.8,1.3,.8,0,1.5-.2,2.2-.8l.4-.3c1.5-1.2,1.8-3.4,.6-4.9-1.2-1.4-3.4-1.7-5-.5Z"/>
      <path class="cls-1" d="M93,59.4c.9,0,1.8-.4,2.5-1.1l.3-.4c1.3-1.4,1.3-3.6-.1-4.9-1.4-1.3-3.6-1.3-4.9,.1l-.3,.4c-1.3,1.4-1.3,3.6,.1,4.9,.6,.6,1.5,1,2.4,1Z"/>
      <path class="cls-1" d="M125.2,34.2c.6,0,1.2-.1,1.7-.5l.4-.2c1.7-.9,2.3-3.1,1.3-4.8s-3.1-2.3-4.8-1.3l-.4,.3c-1.7,1-2.3,3.1-1.3,4.8,.7,1.1,1.9,1.7,3.1,1.7Z"/>
      <path class="cls-1" d="M108.2,45.6c.8,0,1.5-.2,2.2-.7l.4-.3c1.5-1.2,1.8-3.4,.6-4.9-1.2-1.5-3.4-1.8-4.9-.6l-.4,.3c-1.5,1.2-1.8,3.4-.6,4.9,.6,.9,1.6,1.3,2.7,1.3Z"/>
      <path class="cls-1" d="M143.6,25.4c.4,0,.9-.1,1.3-.2l.5-.2c1.8-.7,2.7-2.7,2-4.5s-2.7-2.7-4.5-2l-.5,.2c-1.8,.7-2.7,2.7-2,4.5,.5,1.4,1.8,2.2,3.2,2.2Z"/>
      <path class="cls-1" d="M163.2,19.4c.3,0,.5,0,.8-.1l.5-.1c1.9-.4,3.1-2.3,2.7-4.2s-2.3-3.1-4.2-2.7l-.5,.1c-1.9,.4-3.1,2.3-2.6,4.2,.3,1.7,1.7,2.8,3.3,2.8Z"/>
      <path class="cls-1" d="M54.8,131c.2,0,.5,.1,.7,.1,1.6,0,3.1-1.2,3.4-2.8l.1-.5c.4-1.9-.8-3.7-2.7-4.1-1.9-.4-3.7,.8-4.1,2.7l-.1,.5c-.4,1.9,.8,3.7,2.7,4.1Z"/>
      <path class="cls-1" d="M52.6,171.9c1.9,0,3.5-1.6,3.5-3.5v-.5c0-1.9-1.6-3.5-3.5-3.5s-3.5,1.6-3.5,3.5v.5c0,1.9,1.6,3.5,3.5,3.5Z"/>
      <path class="cls-1" d="M52.7,151.4h.2c1.8,0,3.4-1.4,3.5-3.3v-.5c.1-1.9-1.3-3.6-3.3-3.7-1.9-.1-3.6,1.3-3.7,3.3v.5c-.1,1.9,1.3,3.6,3.3,3.7Z"/>
      <path class="cls-1" d="M77.8,74.4c.6,.4,1.3,.7,2,.7,1.1,0,2.2-.5,2.8-1.5l.3-.4c1.1-1.6,.8-3.8-.8-4.9-1.6-1.1-3.8-.8-4.9,.8l-.3,.4c-1,1.6-.7,3.8,.9,4.9Z"/>
      <path class="cls-1" d="M67.5,92.1c.5,.3,1.1,.4,1.6,.4,1.3,0,2.5-.7,3.1-1.9l.2-.4c.9-1.7,.2-3.8-1.5-4.7s-3.8-.2-4.7,1.5l-.2,.5c-.9,1.6-.2,3.7,1.5,4.6Z"/>
      <path class="cls-1" d="M59.7,111.1c.4,.1,.8,.2,1.2,.2,1.4,0,2.8-.9,3.3-2.3l.2-.5c.7-1.8-.3-3.8-2.1-4.5-1.8-.7-3.8,.3-4.5,2.1l-.2,.5c-.6,1.9,.3,3.9,2.1,4.5Z"/>
      <path class="cls-1" d="M336.1,163.5c-1.9,0-3.5,1.6-3.5,3.5v.5c0,1.9,1.6,3.5,3.5,3.5s3.5-1.6,3.5-3.5v-.5c0-1.9-1.5-3.5-3.5-3.5Z"/>
      <path class="cls-1" d="M292.7,57.7c.7,.7,1.6,1.1,2.5,1.1s1.8-.3,2.4-1c1.4-1.3,1.4-3.6,.1-4.9l-.3-.4c-1.3-1.4-3.6-1.4-4.9-.1-1.4,1.3-1.4,3.6-.1,4.9l.3,.4Z"/>
      <path class="cls-1" d="M242.6,24.7l.5,.2c.4,.2,.8,.2,1.3,.2,1.4,0,2.7-.9,3.3-2.2,.7-1.8-.2-3.8-2-4.5l-.5-.2c-1.8-.7-3.8,.2-4.5,2-.8,1.8,.1,3.9,1.9,4.5Z"/>
      <path class="cls-1" d="M305.6,73c.7,.9,1.7,1.4,2.8,1.4,.7,0,1.4-.2,2.1-.7,1.6-1.1,1.9-3.3,.8-4.9l-.3-.4c-1.1-1.6-3.3-1.9-4.9-.8-1.6,1.1-1.9,3.3-.8,4.9l.3,.5Z"/>
      <path class="cls-1" d="M260.7,33.2l.4,.2c.5,.3,1.1,.5,1.7,.5,1.2,0,2.4-.6,3.1-1.8,.9-1.7,.4-3.8-1.3-4.8l-.5-.3c-1.7-.9-3.8-.3-4.8,1.4-.9,1.7-.3,3.8,1.4,4.8Z"/>
      <path class="cls-1" d="M277.4,44.1l.4,.3c.6,.5,1.4,.7,2.1,.7,1,0,2.1-.5,2.8-1.4,1.2-1.5,.9-3.7-.6-4.9l-.4-.3c-1.5-1.2-3.7-.9-4.9,.7s-.9,3.8,.6,4.9Z"/>
      <path class="cls-1" d="M316.2,89.9c.6,1.2,1.8,1.9,3.1,1.9,.6,0,1.1-.1,1.6-.4,1.7-.9,2.4-3,1.4-4.7l-.2-.4c-.9-1.7-3-2.4-4.7-1.4-1.7,.9-2.4,3-1.4,4.7l.2,.3Z"/>
      <path class="cls-1" d="M183.5,16.4h.8c1.9-.1,3.4-1.8,3.2-3.7-.1-1.9-1.8-3.4-3.7-3.2h-.5c-1.9,.1-3.4,1.8-3.2,3.8,0,1.7,1.5,3.1,3.4,3.1Z"/>
      <path class="cls-1" d="M329.6,127l.1,.5c.3,1.7,1.8,2.8,3.4,2.8,.2,0,.5,0,.7-.1,1.9-.4,3.1-2.2,2.7-4.1l-.1-.5c-.4-1.9-2.3-3.1-4.1-2.7-1.9,.3-3.1,2.2-2.7,4.1Z"/>
      <path class="cls-1" d="M324.2,108.2c.5,1.4,1.9,2.3,3.3,2.3,.4,0,.8-.1,1.2-.2,1.8-.7,2.8-2.7,2.1-4.5l-.2-.5c-.7-1.8-2.7-2.8-4.5-2.1-1.8,.7-2.8,2.7-2.1,4.5l.2,.5Z"/>
      <path class="cls-1" d="M332.3,146.8v.5c.1,1.9,1.7,3.3,3.5,3.3h.2c1.9-.1,3.4-1.8,3.3-3.7v-.5c-.1-1.9-1.8-3.4-3.7-3.3-2,.1-3.4,1.7-3.3,3.7Z"/>
      <path class="cls-1" d="M203.7,16.3h.7c1.8,0,3.3-1.4,3.5-3.3,.1-1.9-1.3-3.6-3.3-3.7h-.5c-1.9-.1-3.6,1.3-3.7,3.3-.1,1.9,1.4,3.5,3.3,3.7Z"/>
      <path class="cls-1" d="M223.5,19.1l.5,.1c.3,.1,.5,.1,.8,.1,1.6,0,3.1-1.1,3.4-2.7,.4-1.9-.8-3.8-2.7-4.2l-.5-.1c-1.9-.4-3.8,.8-4.2,2.7-.4,1.8,.8,3.7,2.7,4.1Z"/>
      <path class="cls-1" d="M389.3,303.1l-19-58.3,19-53.4c.2-.5,.1-1-.2-1.4s-.7-.6-1.2-.6h-39.5v-35.7c0-41-16-79.6-45-108.7C274.4,16,235.8,0,194.7,0S115.1,16,86,45c-29,29-45,67.6-45,108.7v35.7H1.5c-.5,0-.9,.2-1.2,.6s-.4,.9-.2,1.4l19,57L.1,303.1c-.2,.5-.1,1,.2,1.4s.7,.6,1.2,.6H47.9c9.6,30.8,29.1,58.4,55.1,77.6,26.3,19.6,58.9,30.3,91.7,30.3h.1c32.8,0,65.4-10.8,91.7-30.4,25.9-19.3,45.3-46.7,54.9-77.5h46.5c.5,0,.9-.2,1.2-.6,.2-.5,.3-1,.2-1.4ZM44,153.7c0-40.2,15.7-78.1,44.1-106.5S154.4,3.1,194.6,3.1s78.1,15.7,106.5,44.1c28.5,28.5,44.1,66.3,44.1,106.5v35.7h-6.1c.3-.5,.4-1,.4-1.6v-.3c0-1.9-1.6-3.5-3.5-3.5s-3.5,1.6-3.5,3.5v.2c0,.6,.2,1.1,.4,1.6h-4.3v-30.5c0-75.2-60.2-136.3-134.1-136.3S60.4,83.6,60.4,158.8v30.5h-4.5c0-.2,.1-.3,.1-.5v-.5c0-1.9-1.6-3.5-3.5-3.5s-3.5,1.6-3.5,3.5v.5c0,.2,0,.3,.1,.5h-5.2v-35.6h.1Zm281.8,35.7H63.6v-30.5c0-73.5,58.8-133.3,131.1-133.3s131.1,59.8,131.1,133.3v30.5h0ZM3.6,302l18.5-53.2c.1-.3,.1-.7,0-1L3.6,192.3h6.7c-.6,.4-.8,1.1-.6,1.7l18.1,54.1-18.1,52c-.3,.8,.1,1.6,.8,1.9H3.6Zm281.1,78.2c-25.8,19.2-57.7,29.8-89.9,29.8h-.1c-32.1,0-64.1-10.6-89.9-29.7-25.2-18.7-44.2-45.4-53.7-75.2h7.5c-.6,.9-.8,2-.4,3.1l.2,.5c.5,1.4,1.9,2.3,3.3,2.3,.4,0,.8-.1,1.2-.2,1.8-.7,2.7-2.7,2.1-4.5l-.2-.5c-.1-.3-.2-.5-.4-.7h7.2c18.8,52.3,68,87.3,123,87.3s104.1-35,123-87.3h6.9c.1,1.4,1,2.6,2.3,3.1,.4,.1,.8,.2,1.2,.2,1.4,0,2.8-.9,3.3-2.3l.2-.5c.1-.2,.1-.3,.1-.5h6.7c-9.6,29.8-28.5,56.4-53.6,75.1Zm-209.8-75.2h239.5c-18.7,50.5-66.5,84.3-119.8,84.3-53.3,.1-101.1-33.7-119.7-84.3Zm-63.2-3c.4-.2,.7-.5,.8-.9l18.2-52.4c.1-.3,.1-.7,0-1l-18.2-54.5c-.1-.3-.3-.6-.6-.8H377.3c-.2,.2-.4,.4-.6,.7l-18.2,51.2c-.1,.3-.1,.7,0,1l18.2,55.8c.1,.4,.5,.8,.8,.9H11.7Zm367.1,0c.7-.3,1.1-1.1,.8-1.8l-18.1-55.4,18.1-50.7c.2-.6,0-1.4-.5-1.7h6.6l-18.5,51.9c-.1,.3-.1,.7,0,1l18.6,56.8h-7v-.1Z"/>
      <path class="cls-1" d="M153.2,279.6c65.8,2,132.4,2,198.2,0-65.8-1.9-132.4-1.9-198.2,0Z"/>
      <path class="cls-1" d="M225.2,112.5l-.2-.4h0l-.2-.4h0c-.2-.2-.5-.4-.7-.5h0c-2.9-1.4-10.6-3.8-30-3.8s-26.9,2.2-30.4,3.6h0l-.9,.4,.1,.2-1.1,1.7v10.9c0,16.6,14.3,30.1,31.9,30.1s31.9-13.5,31.9-30.1v-10.7c-.3-.3-.4-.6-.4-1h0Zm-31.4,8.2v-.5c-9-.1-17.7-1.9-26-5.3-.1,0-.2-.1-.2-.2-.1-.1-.1-.2-.1-.3s0-.2,.1-.3l.2-.2c8.5-2.5,17.3-3.7,26-3.7s17.5,1.2,26,3.7c.1,0,.2,.1,.2,.2,.1,.1,.1,.2,.1,.3s0,.2-.1,.3l-.2,.2c-8.3,3.4-17,5.2-25.9,5.3l-.1,.5h0Z"/>
      <path class="cls-1" d="M230.2,130.6h0c1.6,0,3.1-.3,4.6-.9s2.8-1.5,3.9-2.6l10.2-10.2c2.2-2.3,3.5-5.2,3.5-8.4,0-1.6-.3-3.1-.9-4.6s-1.5-2.8-2.6-3.9-2.4-2-3.9-2.6-3-.9-4.6-.9h-9.4l.1-7h0c0-7.5-24.7-9.5-37.8-9.5s-37.8,2-37.8,9.5v34c.1,8.9,3.4,17.3,9.2,24-13.2,.8-27.8,3.2-27.8,9.2,0,11.2,50.6,11.5,56.4,11.5s56.4-.3,56.4-11.5c0-6.1-14.9-8.4-28.5-9.3,4.2-4.9,7.1-10.7,8.4-16.9h.6v.1Zm10.2-31.1c1.2,0,2.3,.2,3.4,.7s2.1,1.1,2.9,1.9,1.5,1.8,1.9,2.9,.7,2.2,.7,3.4c0,2.4-.9,4.6-2.6,6.3l-10.2,10.2c-.8,.8-1.8,1.5-2.9,1.9s-2.2,.7-3.4,.7h0c.2-1.3,.3-2.7,.3-4l.5-24h9.4Zm-47-16.5c22.5,0,34.8,4.3,34.8,6.5h0c0,2.2-12.3,6.5-34.8,6.5s-34.8-4.3-34.8-6.5,12.3-6.5,34.8-6.5Zm53.4,73.7c0,3.5-19,8.5-53.4,8.5s-53.4-5-53.4-8.5c0-1.9,7.4-5.3,27.4-6.4v-.2c7,6.6,16,10.2,25.6,10.2s18.5-3.6,25.5-10c20.6,1,28.3,4.5,28.3,6.4Zm-29.6-9.2c-6.5,6.4-15.1,9.9-24.1,9.9s-17.7-3.5-24.1-9.9c-6.5-6.4-10.1-14.9-10.3-23.9v-29.9c7,4.2,24.5,5.4,34.8,5.4s27.6-1.2,34.7-5.4l-.7,29.8c-.2,9.1-3.8,17.6-10.3,24Z"/>
      <path class="cls-1" d="M180.2,75.1c.9-.5,1.7-1,2.6-1.6,3.4-1.8,4.8-5.8,2.2-9-3.3-3.2,.1-5.6,1.6-8.6-1.3,.7-2.6,1.5-3.8,2.4-.9,.8-1.5,2-1.7,3.2s0,2.5,.7,3.5c.3,.5,.6,.9,1,1.3,.4,.5,.7,1.2,.8,1.8,.1,.7,0,1.4-.3,2-.8,1.6-2.3,3.3-3.1,5Z"/>
      <path class="cls-1" d="M191.1,75.1c.9-.5,1.7-1,2.5-1.6,3.4-1.8,4.8-5.8,2.2-9-3.3-3.2,.1-5.6,1.6-8.6-1.3,.7-2.6,1.5-3.8,2.4-.9,.8-1.5,1.9-1.7,3.2-.2,1.2,0,2.5,.7,3.6,.3,.5,.6,.9,1,1.3,.4,.5,.7,1.2,.8,1.8,.1,.7,0,1.4-.3,2-.7,1.5-2.2,3.2-3,4.9Z"/>
      <path class="cls-1" d="M202,75.1c.9-.5,1.7-1,2.6-1.6,3.4-1.8,4.8-5.8,2.2-9-3.3-3.2,.1-5.6,1.6-8.6-1.3,.7-2.6,1.5-3.8,2.4-.9,.8-1.5,1.9-1.7,3.2-.2,1.2,0,2.5,.7,3.6,.3,.5,.6,.9,1,1.3,.4,.5,.7,1.2,.8,1.8,.1,.7,0,1.4-.3,2-.9,1.5-2.4,3.2-3.1,4.9Z"/>
      <path class="cls-1" d="M166.5,363.6c2.3,1.7,5.1,2.6,8.1,2.6,7.1,0,15.6-4.6,21.7-12.7,8.7-11.5,9.5-25.5,1.8-31.4-3.8-2.9-9.1-3.4-14.8-1.4-5.5,2-10.8,6-15,11.5s-6.7,11.7-7.1,17.5c-.4,6,1.4,11,5.3,13.9Zm27.4-12c-7,9.2-17,13.5-23.6,10.7,3.5-2.4,10-8.2,13.4-19.1,3.5-11.3,10.8-16.6,13.3-18.2,5.6,5.3,4.3,16.9-3.1,26.6Zm-29.7-1.7c.4-5.3,2.7-10.9,6.5-15.9s8.6-8.7,13.6-10.5c2-.7,3.9-1.1,5.7-1.1,1.6,0,3,.3,4.3,.8-3.5,2.4-10,8.2-13.4,19.1-3.5,11.3-10.9,16.7-13.3,18.2-2.5-2.3-3.7-6.1-3.4-10.6Z"/>
      <path class="cls-1" d="M203.4,327.2c6.8-1,15.4,4.2,21,12.7,3.5,5.2,5.4,11,5.5,16.3,0,4-1.1,7.3-3.1,9.5-1.1-4.1-4.5-12.1-13.6-18.9-2.8-2-5.2-4.4-7.3-7.1-.5-.7-1.4-.8-2.1-.3s-.8,1.4-.3,2.1c2.3,2.9,4.9,5.5,7.9,7.7,9.5,7,12.2,15.7,12.8,18.5-6.8,3.5-17.3-1.5-24.1-11.7-.4-.6-.8-1.2-1.2-1.9-.4-.7-1.3-1-2-.6s-1,1.3-.6,2,.8,1.5,1.3,2.1c5.9,8.8,14.5,14.1,21.9,14.1,2.6,0,5-.7,7.1-2h.1l.1-.1h.1c3.9-2.7,6-7.4,6-13.4s-2.2-12.2-6-17.9c-6.3-9.5-15.9-15.1-23.9-14-.8,.1-1.4,.9-1.3,1.7,.1,.8,.9,1.3,1.7,1.2Z"/>
      <path class="cls-1" d="M96.7,241c-1.1-.5-2.2-.7-3.4-.7-2.6,0-5.1,.7-7.3,2-2.6,1.5-4.7,3.6-6.3,6.1-1.7,2.5-2.7,5.4-2.7,8.4-.1,2.6,.8,5.2,2.5,7.2,.7,.9,1.7,1.6,2.7,2.1,1.1,.5,2.2,.8,3.4,.7,2.6,0,5.1-.7,7.3-2,2.6-1.5,4.7-3.6,6.3-6,1.7-2.5,2.7-5.4,2.7-8.4,.1-2.6-.8-5.2-2.5-7.3-.7-.8-1.6-1.6-2.7-2.1Zm.8,16c-.4,1.1-1.1,2.1-1.9,2.9s-1.8,1.5-2.8,1.9c-1.1,.4-2.2,.6-3.3,.6-1.2,0-2.3-.2-3.4-.6s-2-1.1-2.8-1.9-1.5-1.8-1.9-2.9-.6-2.2-.6-3.4,.2-2.3,.6-3.4,1.1-2,1.9-2.8,1.8-1.5,2.8-1.9c1.1-.4,2.2-.7,3.4-.6,1.1,0,2.3,.2,3.3,.6,1.1,.4,2,1.1,2.8,1.9s1.4,1.8,1.9,2.9c.4,1.1,.6,2.2,.6,3.4,.1,1.1-.2,2.2-.6,3.3Z"/>
      <path class="cls-1" d="M68.2,241.9l-2.4-.5c-.3,0-.7,.1-1,.2s-.6,.3-.8,.6c-.2,.2-.4,.5-.6,.8-.1,.3-.2,.6-.2,.9,0,.6,.2,1.2,.6,1.7,.3,.3,.6,.5,1,.6s.7,.2,1.1,.2c.9,0,1.9-.3,2.7-.7,.8-.4,1.6-1,2.2-1.8,1.6-1.7,2.4-4,2.4-6.3,0-1.5-.3-3-1-4.4s-1.7-2.6-2.9-3.5c-2.8-2.2-6.3-3.3-9.9-3.2-2.7-.1-5.4,.5-7.9,1.6s-4.7,2.7-6.5,4.7c-3.8,4-5.9,9.3-5.8,14.8,0,5.7,1.7,10.3,5,13.9,1.6,1.8,3.6,3.1,5.8,4.1,2.2,.9,4.5,1.4,6.9,1.3,2.3,0,4.5-.4,6.6-1.2,1.9-.7,3.6-1.7,5.2-2.9,1.2-1,2.2-2.1,3.2-3.3,.6-.7,1-1.5,1.2-2.4,0-.2,0-.4-.1-.6s-.2-.4-.3-.5c-.1-.1-.2-.2-.4-.3-.2-.1-.3-.1-.5-.1-.4,0-1,.5-1.7,1.4-3.4,4.1-7.2,6.1-11.5,6.1-2,0-4.1-.4-5.9-1.3s-3.4-2.2-4.7-3.8c-2.8-3.4-4.2-7.7-4.1-12.2,0-4.7,1.2-8.4,3.7-11.2s5.9-4.1,10.3-4.1c3.2-.1,6.3,1,8.6,3.1,2.3,2.1,3.4,4,3.4,5.8,.1,1.6-.5,2.5-1.7,2.5Z"/>
      <path class="cls-1" d="M114,231.1c.7-1,1.6-1.8,2.7-2.3,1.1-.6,2.2-.8,3.4-.8s2.5,.2,3.6,.7c.8,.3,1.7,.5,2.6,.6,.3,0,.6-.1,.8-.2,.3-.1,.5-.3,.7-.5,.3-.3,.5-.6,.6-1s.2-.8,.2-1.2c0-.5-.1-.9-.4-1.3-.2-.4-.6-.7-1-.9-1-.5-2.2-.8-3.4-.7-3.5,0-7,1.7-10.5,5-1.7,1.6-3,3.5-4,5.6-.9,2.1-1.4,4.4-1.5,6.7-.4,0-1-.1-1.7-.1-1.5,0-2.2,.6-2.2,1.9s.7,1.9,2.2,1.9h1.8c.3,6.6,.5,11.7,.5,15.5,0,3.3-.2,6.7-.6,10-.2,2.2-.6,4.4-1.1,6.6h0c-.3,1.1-.5,2.3-.6,3.5,0,2.2,.8,3.3,2.5,3.3,2.4,0,3.6-3.1,3.6-9.3,0-5.1-.2-10.3-.5-15.5s-.4-10-.5-14.2c.4,0,1-.1,1.8-.1l8,.5c1.5,0,2.2-.7,2.2-2.1s-.7-2.1-2.2-2.1l-8,.5h-1.5v-2.2c-.1-3,.8-5.7,2.5-7.8Z"/>
      <path class="cls-1" d="M163.7,264.4c2.2-1.7,3.3-3,3.3-4.1,0-.1,0-.3-.1-.4s-.1-.2-.2-.3c-.1-.1-.2-.2-.4-.3-.1-.1-.3-.1-.4-.1-.5,.1-1,.4-1.4,.8-1.6,1.5-3.6,2.3-5.8,2.4-2.1,0-4.2-.7-5.8-2.2-1.6-1.4-2.6-3.4-2.8-5.5,.5-.1,1-.2,1.5-.2l6.9,.6h0c1.6-.1,2.4-.8,2.4-2.2s-.9-2.1-2.7-2.1l-7.9,.5c.5-1.8,1.5-3.4,3-4.6,1.5-1.3,3.4-1.9,5.4-1.9,1.2,0,2.4,.3,3.5,.7,.8,.4,1.7,.6,2.6,.7,.3,0,.6-.1,.8-.2s.5-.3,.7-.6c.3-.3,.5-.6,.6-1s.2-.7,.2-1.1c0-.5-.2-.9-.5-1.3s-.7-.7-1.1-.8c-1.2-.6-2.6-.9-3.9-.9-3.9,0-7.7,1.6-10.6,4.3-1.5,1.3-2.8,3-3.6,4.8-.8,1.8-1.2,3.8-1.2,5.9-.1,3,1,6,3,8.3,.9,1,2,1.9,3.2,2.5s2.6,.9,3.9,.9c2.7-.1,5.3-.9,7.4-2.6Z"/>
      <path class="cls-1" d="M134.7,231.2c.7-1,1.6-1.8,2.7-2.3s2.2-.8,3.4-.8,2.5,.2,3.6,.7c.8,.3,1.7,.5,2.6,.6,.3,0,.6-.1,.8-.2,.3-.1,.5-.3,.7-.5,.3-.3,.5-.6,.6-1s.2-.8,.2-1.2c0-.5-.1-.9-.4-1.3-.2-.4-.6-.7-1-.9-1-.5-2.2-.8-3.4-.7-3.5,0-7,1.7-10.5,5-1.7,1.6-3,3.4-4,5.5-.9,2.1-1.4,4.3-1.5,6.6-.4,0-1-.1-1.7-.1-1.5,0-2.2,.6-2.2,1.9s.7,1.9,2.2,1.9h1.8c.3,6.6,.5,11.7,.5,15.5,0,3.3-.2,6.7-.6,10-.2,2.2-.6,4.4-1.1,6.6h0c-.3,1.1-.5,2.3-.6,3.5,0,2.2,.8,3.3,2.5,3.3,2.4,0,3.6-3.1,3.6-9.3,0-5.1-.2-10.3-.5-15.5-.3-5.3-.4-10-.5-14.2,.4,0,1-.1,1.8-.1l7.9,.5c1.5,0,2.2-.7,2.2-2.1s-.7-2.1-2.2-2.1l-7.9,.5h-1.8v-2.2c.2-2.9,1.1-5.5,2.8-7.6Z"/>
      <path class="cls-1" d="M349.2,253.9c-.3-2.9-.4-5.9-.4-8.8,0-3.4,.1-7,.5-10.8,.3-3.9,.5-6.3,.5-7.4,.1-.9-.2-1.8-.8-2.5-.2-.3-.5-.5-.8-.7s-.7-.3-1-.3c-.4,0-.7,.1-1,.3-.3,.2-.6,.4-.8,.7-.5,.6-.7,1.4-.7,2.2,0,.9,.1,3,.3,6.5,.2,3.4,.4,6.6,.4,9.4-1.4-1.4-3.3-2.1-5.3-2.1s-3.8,.4-5.5,1.3c-1.8,.8-3.5,2-5,3.3-1.6,1.5-2.9,3.4-3.8,5.4-1,2.2-1.5,4.6-1.5,7.1s.9,4.8,2.5,6.6c.7,.9,1.7,1.6,2.7,2.1s2.2,.8,3.4,.7h0c2.4,0,4.8-.6,6.9-1.8,2.2-1.2,4.1-2.8,5.5-4.8,.3,4.3,1.5,6.5,3.6,6.5,1.7,0,2.5-1.1,2.5-3.3-.2-1.6-.7-3.2-1.3-4.7-.5-1.6-.7-3.2-.9-4.9Zm-3.7-.5c0,1.2-.2,2.4-.6,3.5-.4,1.1-1.1,2.1-1.9,3-.8,.8-1.8,1.5-2.8,1.9-1.1,.4-2.2,.6-3.3,.6-1.2,0-2.3-.2-3.4-.6-1.1-.4-2-1.1-2.9-1.9-.8-.8-1.5-1.8-1.9-2.9s-.6-2.2-.6-3.4,.2-2.3,.6-3.4c.4-1.1,1.1-2,1.9-2.8h0c.8-.8,1.9-1.5,3-1.9s2.3-.6,3.5-.6c1.1-.1,2.3,.1,3.3,.5,1.1,.4,2,1,2.8,1.8s1.4,1.8,1.8,2.9c.4,1,.6,2.2,.5,3.3Z"/>
      <path class="cls-1" d="M296.6,266.2c.5,.5,1.2,.8,1.9,.7,.3,0,.7-.1,1-.2s.6-.3,.8-.6c.5-.6,.7-1.3,.7-2l-.3-14.1c.1-1.4,.7-2.7,1.6-3.8,.5-.6,1.1-1,1.7-1.3,.7-.3,1.4-.4,2.1-.4,3.2,0,5.2,1.9,5.9,5.8l2.2,12c.6,3,1.8,4.6,3.7,4.6s2.9-1,2.9-3c-.1-1-.5-1.9-1.1-2.7-.6-.9-1.1-1.9-1.4-2.9l-2.2-9.9c-1.2-5.4-3.7-8.1-7.8-8.1-2.8,0-5.3,1.5-7.4,4.4,0-.4,.1-1,.1-1.7s-.2-1.4-.7-1.9c-.2-.3-.5-.5-.8-.6s-.6-.2-1-.2-.7,.1-1,.2-.6,.3-.9,.6c-.5,.6-.8,1.3-.7,2l.4,9.6-.4,11.4c-.1,.8,.2,1.5,.7,2.1Z"/>
      <path class="cls-1" d="M270.5,265.1c1.3,1.2,3.1,1.9,4.9,1.8,3.9,0,6.8-2.1,8.8-6.2l.5,1.3c1.2,3.3,2.6,4.9,4.2,4.9,.3,0,.6,0,.8-.1,.3-.1,.5-.3,.7-.5,.4-.5,.6-1.1,.6-1.8-.1-1.1-.6-2-1.3-2.8-.7-.9-1.2-1.8-1.7-2.8l-1.1-3c-1.8-5.3-3.9-9.3-6.3-11.8s-4.9-3.7-7.4-3.7c-.8,0-1.6,.2-2.3,.7-.3,.2-.5,.5-.7,.8s-.3,.7-.3,1.1c0,.3,0,.6,.1,.8,.1,.3,.3,.5,.5,.7,.5,.3,1,.5,1.6,.5,.7,0,1.5,.1,2.2,.2,.9,.2,1.8,.6,2.5,1.2,1.1,.8,2,1.8,2.6,3-1.5,0-2.9,.3-4.3,.9-1.3,.6-2.6,1.4-3.6,2.5-1,1-1.7,2.2-2.3,3.5-.5,1.3-.8,2.7-.7,4.1,0,.9,.1,1.7,.5,2.6,.4,.7,.9,1.5,1.5,2.1Zm2.5-9.7c.3-.6,.7-1.2,1.2-1.6,1-.9,2.4-1.4,3.7-1.4h0c1.2,0,2.5,.3,3.6,.9l.6,1.6c.4,.8,.5,1.7,.5,2.7,0,.7-.1,1.3-.4,1.9s-.6,1.1-1.1,1.6c-1,.9-2.2,1.4-3.6,1.4s-2.6-.5-3.6-1.4c-.5-.5-.8-1.1-1.1-1.7-.2-.6-.4-1.3-.3-2,.1-.7,.2-1.3,.5-2Z"/>
      <path class="cls-1" d="M175.8,266c1.2,.6,2.6,.9,3.9,.9,2.7,0,5.3-.8,7.4-2.5,2.2-1.7,3.3-3,3.3-4.1,0-.1,0-.3-.1-.4s-.1-.2-.2-.3c-.1-.1-.2-.2-.4-.3-.1-.1-.3-.1-.4-.1-.5,.1-1,.4-1.4,.8-1.6,1.5-3.6,2.3-5.8,2.4-2.1,0-4.2-.7-5.8-2.2-1.6-1.4-2.6-3.4-2.8-5.5,.5-.1,1-.2,1.6-.2l6.9,.6h0c1.6-.1,2.4-.8,2.4-2.2s-.9-2.1-2.7-2.1l-8,.5c.5-1.8,1.5-3.4,3-4.6,1.5-1.3,3.4-1.9,5.4-1.9,1.2,0,2.4,.3,3.5,.7,.8,.4,1.7,.6,2.6,.7,.3,0,.6-.1,.8-.2s.5-.3,.7-.6c.3-.3,.5-.6,.6-1s.2-.7,.2-1.1c0-.5-.2-.9-.5-1.3s-.7-.7-1.1-.8c-1.2-.6-2.6-.9-3.9-.9-3.9,0-7.7,1.6-10.6,4.3-1.5,1.3-2.8,3-3.6,4.8-.8,1.8-1.2,3.8-1.2,5.9-.1,3,1,6,3,8.3,.8,1,1.9,1.8,3.2,2.4Z"/>
      <path class="cls-1" d="M248.6,249.4c0,2.7-.2,5.9-.6,9.7-.2,1.9-.3,3.4-.3,4.4,0,.9,.2,1.7,.7,2.5,.2,.3,.5,.5,.8,.6s.7,.2,1,.2c.4,0,.7-.1,1-.3,.3-.2,.6-.4,.8-.7,.6-.7,.8-1.6,.8-2.5l-.5-10.4c.1-2.1,.8-4.2,2-6,1.1-1.5,2.2-2.2,3.3-2.2,.6,0,1.2,.2,1.6,.5s.7,.6,.9,1c.2,.4,.4,.7,.7,1,.4,.3,.9,.5,1.4,.5,.4,0,.7-.1,1-.3,.3-.2,.6-.4,.7-.8,.6-.8,.8-1.8,.8-2.8,0-.5-.1-1-.3-1.4-.2-.5-.5-.9-.8-1.2-.4-.4-.9-.7-1.4-.8-.5-.2-1.1-.2-1.6-.2-1.6,.1-3.2,.8-4.4,1.8-1.7,1.3-3.1,3-4.1,5v-2.2c0-3-1-4.6-2.9-4.6-.8,0-1.5,.4-2,.9s-.8,1.3-.8,2c.1,1,.4,2,1,2.9,.8,1.1,1.2,2.3,1.2,3.4Z"/>
      <path class="cls-1" d="M210.5,240.6c.3,0,.6,0,.8-.1,.3-.1,.5-.3,.7-.4,.4-.4,.6-1,.6-1.6,0-1.2,.3-2.4,.8-3.5s1.3-2.1,2.3-2.8c0,.4,0,1.3,.1,2.6,.1,1.3,.2,2.9,.3,5,.1,2.1,.1,4.7,.1,7.8s-.1,6.3-.3,9.5c-.2,3.2-.2,5-.2,5.5h-1.1c-.6,0-1.2,.2-1.7,.6-.2,.2-.4,.4-.5,.7s-.2,.6-.2,.9,0,.6,.2,.9c.1,.3,.3,.5,.5,.7,.5,.4,1.1,.6,1.7,.6h11.9c2,.1,4-.3,5.8-1,1.9-.7,3.5-1.8,5-3.1,1.3-1.2,2.4-2.7,3.1-4.3,.7-1.6,1.1-3.4,1.1-5.2,0-2.7-.9-5.3-2.5-7.4-1.8-2.4-4.4-4-7.3-4.7,.9-.7,1.7-1.6,2.2-2.7s.8-2.2,.9-3.4c0-1.1-.3-2.3-.8-3.3s-1.2-1.9-2.1-2.7c-2-1.8-4.7-2.8-7.4-2.6-4.1,0-8,1.4-11.1,4-3.3,2.7-4.9,5.3-4.9,8h0c-.1,1.3,.6,2.1,2,2Zm10.4-10.2h.6c.2,0,.5-.1,.7-.1,2.2-.1,4.4,.4,6.2,1.7,.7,.5,1.3,1.2,1.7,2,.4,.8,.6,1.7,.6,2.6,.1,.8-.1,1.6-.4,2.3-.3,.7-.8,1.4-1.4,1.9-3-.1-6,1-8.2,2.9,0-3,.1-5.7,.3-8.1,.2-2.4,.2-3.7,.2-4,0-.4-.1-.8-.3-1.2Zm6.2,14.4c2.4-.1,4.8,.8,6.6,2.4,1.7,1.8,2.7,4.3,2.7,6.8s-.9,5-2.6,6.8c-1.5,1.5-3.6,2.3-5.7,2.3-2.3,0-4.6-.1-6.9-.4h0c0-1.5-.1-3.9-.3-7.5-.2-3.6-.2-6.5-.2-8.9,2-1,4.2-1.5,6.4-1.5Z"/>
    </g>
  </g>
</svg>